# xmcd CD Database Entry
#
# Track frame offsets:
# 150
# 13159
# 24943
# 36239
# 48091
# 58992
# 70849
# 80938
# 91234
# 101743
# 112822
# 123436
# 135275
# 146667
# 157081
# 167935
# 180669
# 191078
# 202474
# 213101
# 223407
#
# Disc length: 3119 seconds
#
# Revision: 1
# Processed by: cddbd v1.4PL0 Copyright (c) Steve Scherf et al.
# Submitted via: tcd 2.0b
#
DISCID=3e0c2d15
DTITLE=Robert Johnson - The Complete Recordings - Disc 2
DYEAR=1900
DGENRE=
TTITLE0=Preaching Blues (Up Jumped The Devil)
TTITLE1=If I Had Posession Over Judgement Day
TTITLE2=Stones In My Passway
TTITLE3=I'm A Steady Rollin' Man
TTITLE4=From Four Till Late
TTITLE5=Hellhound On My Trail
TTITLE6=Little Queen Of Spades
TTITLE7=Little Queen Of Spades [Alternate Take]
TTITLE8=Malted Milk
TTITLE9=Drunken Hearted Man
TTITLE10=Drunken Hearted Man [Alternate Take]
TTITLE11=Me And The Devil Blues
TTITLE12=Me And The Devil Blues [Alternate Take]
TTITLE13=Stop Breakin' Down Blues
TTITLE14=Stop Breakin' Down Blues [Alternate Take]
TTITLE15=Traveling Riverside Blues
TTITLE16=Honeymoon Blues
TTITLE17=Love In Vain
TTITLE18=Love In Vain [Alternate Take]
TTITLE19=Milkcow's Calf Blues
TTITLE20=Milkcow's Calf Blues [Alternate Take]
EXTD=Columbia C2K 46222-2
EXTT0=
EXTT1=
EXTT2=
EXTT3=
EXTT4=
EXTT5=
EXTT6=
EXTT7=
EXTT8=
EXTT9=
EXTT10=
EXTT11=
EXTT12=
EXTT13=
EXTT14=
EXTT15=
EXTT16=
EXTT17=
EXTT18=
EXTT19=
EXTT20=
PLAYORDER=
